# xmcd
#
# Track frame offsets:
#	150
#	14892
#	31874
#	50930
#	66991
#	81574
#	98560
#	115168
#	129984
#	145437
#	159015
#	178244
#	194515
#	211173
#	227582
#
# Disc length: 3252 seconds
#
# Revision: 1
# Processed by: cddbd v1.5.2PL0 Copyright (c) Steve Scherf et al.
# Submitted via: audiograbber 1.83.01
#
DISCID=d70cb20f
DTITLE=Alabama - CBCDG-60055
DYEAR=1900
DGENRE=Country
TTITLE0=Alabama - Southern Star
TTITLE1=Alabama - When We Make Love
TTITLE2=Alabama - Mountain Music
TTITLE3=Alabama - Love In The First Degree
TTITLE4=Alabama - I'm In A Hurry ( And Don't Know Why )
TTITLE5=Alabama - Closer You Get
TTITLE6=Alabama - Tennessee River
TTITLE7=Alabama - Maker Said Take Her
TTITLE8=Alabama - Born Country
TTITLE9=Alabama - High Cotton
TTITLE10=Alabama - Take Me Down
TTITLE11=Alabama - In Pictures
TTITLE12=Alabama - Give Me One More Shot
TTITLE13=Alabama - Forever's As Far As I'll Go
TTITLE14=Alabama - Down Home
EXTD=
EXTT0=
EXTT1=
EXTT2=
EXTT3=
EXTT4=
EXTT5=
EXTT6=
EXTT7=
EXTT8=
EXTT9=
EXTT10=
EXTT11=
EXTT12=
EXTT13=
EXTT14=
PLAYORDER=
